<svg xmlns="http://www.w3.org/2000/svg" width="164.407" height="98.986" viewBox="0 0 164.407 98.986"><g transform="translate(-14.174 -46.885)"><path fill="#e9b040" fill-rule="evenodd" d="M96.42,133.041a48.572,48.572,0,0,0,32.966,12.83,49.494,49.494,0,0,0,0-98.986A48.567,48.567,0,0,0,96.42,59.715a49.527,49.527,0,0,0,0,73.326Z" data-name="Path 52155"/><path fill="#e9b040" fill-rule="evenodd" d="M172.041,123.949a1.523,1.523,0,0,1,1.529-1.529,1.543,1.543,0,0,1,1.613,1.529,1.562,1.562,0,0,1-1.613,1.615A1.544,1.544,0,0,1,172.041,123.949Zm1.529,1.276a1.306,1.306,0,0,0,1.273-1.275,1.234,1.234,0,0,0-1.273-1.189,1.214,1.214,0,0,0-1.189,1.189A1.3,1.3,0,0,0,173.57,125.225Zm-.17-.51h-.34V123.27h.594a.5.5,0,0,1,.34.086c.17.084.17.17.17.34s-.084.34-.254.34l.34.68h-.426l-.17-.6H173.4v-.255h.34c.084,0,.084-.086.084-.17s0-.086-.084-.17h-.34Z" data-name="Path 52156"/><path fill="#cc2131" fill-rule="evenodd" d="M112.309,91.153c-.17-1.784-.51-3.483-.85-5.268H81.381A51.824,51.824,0,0,1,82.74,80.7h27.275q-.888-2.683-2.039-5.268H84.865q1.275-2.7,2.8-5.268h17.419a44.705,44.705,0,0,0-3.738-5.183H91.408a48.87,48.87,0,0,1,5.013-5.268,49.356,49.356,0,1,0-33.052,86.156,48.788,48.788,0,0,0,33.052-12.83,47.105,47.105,0,0,0,4.929-5.184H91.408a58.588,58.588,0,0,1-3.739-5.268h17.419a39.518,39.518,0,0,0,2.889-5.268H84.865a55.288,55.288,0,0,1-2.125-5.184h27.275a52.957,52.957,0,0,0,1.443-5.268,52.271,52.271,0,0,0,.85-5.268,51.617,51.617,0,0,0,.256-5.184c0-1.781-.085-3.565-.255-5.264Z" data-name="Path 52157"/><path fill="#fff" fill-rule="evenodd" d="M172.041,107.891a1.543,1.543,0,0,1,1.529-1.613,1.561,1.561,0,0,1,1.613,1.613,1.572,1.572,0,1,1-3.142,0Zm1.529,1.189a1.192,1.192,0,1,0,0-2.378,1.189,1.189,0,0,0,0,2.378Zm-.17-.51h-.34v-1.359h.934c.17.086.17.256.17.426a.457.457,0,0,1-.254.34l.34.594h-.426l-.17-.51H173.4v-.255h.17c.084,0,.17,0,.17-.086.084,0,.084-.084.084-.17a.082.082,0,0,0-.084-.084c0-.086-.086,0-.17,0h-.17Z" data-name="Path 52158"/><path fill="#1b3771" fill-rule="evenodd" d="M79.682,110.695a15.713,15.713,0,0,1-3.993.68c-2.549,0-4.079-1.615-4.079-4.5A15.268,15.268,0,0,1,71.78,105l.34-1.953.255-1.615L74.669,87.5h5.1l-.6,3.059H82.4l-.765,5.1H78.407l-1.359,8.326a3.908,3.908,0,0,0-.085.85c0,1.105.51,1.529,1.784,1.529a9.3,9.3,0,0,0,1.614-.17l-.679,4.5Zm16.484-.17a19.99,19.99,0,0,1-5.438.764c-5.778,0-9.092-3.059-9.092-9.09,0-7.053,3.909-12.151,9.346-12.151,4.333,0,7.137,2.889,7.137,7.391a23.429,23.429,0,0,1-.594,5.014H86.9a2.392,2.392,0,0,0-.085.68c0,2.379,1.614,3.568,4.673,3.568a12.811,12.811,0,0,0,5.523-1.273Zm-3.144-12.15v-1.02a2.351,2.351,0,0,0-2.549-2.634c-1.7,0-2.889,1.274-3.4,3.653h5.948ZM38.9,110.949H33.63l3.059-19.286-6.882,19.286H26.154l-.425-19.2-3.229,19.2H17.317L21.48,85.885h7.732l.17,15.465,5.183-15.465h8.5L38.9,110.949Zm12.831-9.09a4.823,4.823,0,0,0-1.02-.086c-3.059,0-4.588,1.189-4.588,3.059a1.923,1.923,0,0,0,1.954,2.125c2.549,0,3.568-2.125,3.654-5.1Zm4.248,9.09H51.389l.085-2.123c-1.19,1.613-2.8,2.463-5.608,2.463-2.549,0-4.758-2.293-4.758-5.607a8.992,8.992,0,0,1,.425-2.633c.849-3.145,3.993-5.1,8.836-5.184.6,0,1.529,0,2.379.086a4.521,4.521,0,0,0,.169-1.36c0-1.36-1.1-1.785-3.568-1.785a14.177,14.177,0,0,0-4.418.68l-.765.17-.34.084.765-4.588a19.94,19.94,0,0,1,6.2-1.1c4.588,0,7.052,2.124,7.052,6.032a19.274,19.274,0,0,1-.255,3.994L56.4,107.381l-.17,1.275-.085,1.02-.085.68-.085.593Zm65.849-20.221a10.217,10.217,0,0,1,4.758,1.359l.934-5.438a11.762,11.762,0,0,0-1.359-.51l-2.123-.6a10.457,10.457,0,0,0-2.465-.255c-2.635,0-4.164.085-5.777,1.02a15.969,15.969,0,0,0-3.145,2.719l-.68-.17-5.438,3.823.256-2.124h-5.609l-3.312,20.391h5.354l1.953-10.959s.766-1.531,1.105-2.039a3.1,3.1,0,0,1,2.973-1.275h.426a27.428,27.428,0,0,0-.256,3.908c0,6.627,3.738,10.791,9.516,10.791a17.169,17.169,0,0,0,4.674-.68l.936-5.777a9.6,9.6,0,0,1-4.5,1.359c-3.143,0-5.014-2.379-5.014-6.117,0-5.523,2.8-9.431,6.8-9.431Zm45.115-4.843-1.188,7.137a5.5,5.5,0,0,0-4.844-2.889,8.017,8.017,0,0,0-7.053,4.673v-.084l-3.4-2.04.34-2.124h-5.693l-3.229,20.391h5.268l1.785-10.959s1.359-1.531,1.7-2.039a3.32,3.32,0,0,1,2.379-1.275,18.378,18.378,0,0,0-.934,6.033c0,5.1,2.633,8.5,6.541,8.5a6.175,6.175,0,0,0,4.928-2.295l-.254,2.039H168.3l4.078-25.064h-5.439ZM160.4,106.107c-1.785,0-2.719-1.359-2.719-3.994,0-3.994,1.7-6.882,4.162-6.882,1.869,0,2.8,1.445,2.8,3.994,0,4.078-1.7,6.882-4.248,6.882Zm-24.554-4.248a4.823,4.823,0,0,0-1.02-.086c-3.061,0-4.59,1.189-4.59,3.059a1.924,1.924,0,0,0,1.955,2.125C134.74,106.957,135.76,104.832,135.846,101.859Zm4.248,9.09H135.42l.17-2.123c-1.189,1.613-2.8,2.463-5.607,2.463-2.635,0-4.928-2.209-4.928-5.607,0-4.842,3.652-7.816,9.43-7.816a22.039,22.039,0,0,1,2.295.086,5.231,5.231,0,0,0,.256-1.36c0-1.36-1.1-1.785-3.654-1.785a14.582,14.582,0,0,0-4.418.68l-.68.17-.34.084.764-4.588a19.955,19.955,0,0,1,6.2-1.1c4.588,0,6.967,2.124,6.967,6.032a14.634,14.634,0,0,1-.254,3.994l-1.1,7.307-.17,1.275-.17,1.02-.084.68v.592h0ZM67.107,94.891a25.2,25.2,0,0,1,3.994.34l.765-4.758c-1.53-.17-3.569-.425-4.759-.425-5.947,0-7.9,3.229-7.9,6.967,0,2.465,1.1,4.248,3.993,5.607,2.124,1.02,2.464,1.189,2.464,2.125,0,1.273-1.1,2.039-3.144,2.039a14.225,14.225,0,0,1-4.843-.85l-.6,4.672.084.086,1.02.17a13.386,13.386,0,0,0,1.36.254c1.274.086,2.379.17,3.059.17,5.948,0,8.412-2.293,8.412-6.8,0-2.8-1.36-4.5-3.994-5.691-2.294-1.021-2.549-1.189-2.549-2.125s1.02-1.784,2.634-1.784Z" data-name="Path 52159"/><path fill="#fff" fill-rule="evenodd" d="M128.963,85.035l-.936,5.438a10.2,10.2,0,0,0-4.758-1.359c-3.994,0-6.8,3.908-6.8,9.431,0,3.824,1.869,6.117,5.014,6.117a10.432,10.432,0,0,0,4.5-1.273l-.934,5.691a17.7,17.7,0,0,1-4.674.766c-5.777,0-9.346-4.164-9.346-10.875,0-8.922,4.928-15.21,11.98-15.21a10.451,10.451,0,0,1,2.463.255l2.125.51c.681.255.851.34,1.361.509ZM111.8,88.774h-.51c-1.783,0-2.8.85-4.418,3.313l.51-3.144h-4.844l-3.312,20.392h5.354c1.953-12.49,2.463-14.614,5.012-14.614h.34a21.36,21.36,0,0,1,2.039-5.863l-.171-.084ZM81.042,109.08a11.025,11.025,0,0,1-3.823.68c-2.719,0-4.249-1.529-4.249-4.5a14.009,14.009,0,0,1,.17-1.785l.34-2.039.255-1.613,2.294-13.936H81.3l-.6,3.059h2.719l-.68,5.013H80.022l-1.444,8.5a3.192,3.192,0,0,0-.085.85c0,1.02.51,1.445,1.784,1.445a3.534,3.534,0,0,0,1.444-.17l-.679,4.5ZM60.565,95.4c0,2.55,1.189,4.333,3.993,5.693,2.209,1.02,2.549,1.359,2.549,2.209,0,1.275-.935,1.869-3.059,1.869a15.877,15.877,0,0,1-4.758-.764l-.765,4.672.255.086.935.17a5.582,5.582,0,0,0,1.444.17,19.636,19.636,0,0,0,2.889.17c5.607,0,8.242-2.125,8.242-6.8,0-2.805-1.1-4.42-3.738-5.693C66.258,96.166,66,95.912,66,94.977c0-1.1.935-1.614,2.634-1.614a33.177,33.177,0,0,1,3.824.255l.764-4.673a30.77,30.77,0,0,0-4.673-.425c-5.948,0-8.072,3.143-7.987,6.881Zm109.1,13.935h-5.014l.256-1.955a6.363,6.363,0,0,1-4.93,2.209c-3.908,0-6.457-3.312-6.457-8.41,0-6.8,3.994-12.576,8.666-12.576a6.107,6.107,0,0,1,5.1,2.8l1.189-7.137h5.268l-4.078,25.065Zm-7.818-4.758c2.465,0,4.164-2.889,4.164-6.883,0-2.634-.936-3.994-2.8-3.994-2.379,0-4.162,2.8-4.162,6.8q0,4.08,2.8,4.079ZM97.355,108.91a17.408,17.408,0,0,1-5.523.85c-5.948,0-9.007-3.143-9.007-9.176,0-6.967,3.909-12.15,9.262-12.15,4.418,0,7.221,2.889,7.221,7.392a20.537,20.537,0,0,1-.68,5.1H88.094a1.667,1.667,0,0,0-.085.6c0,2.379,1.615,3.568,4.673,3.568a11.688,11.688,0,0,0,5.523-1.275l-.85,5.1ZM94.381,96.76V95.741a2.351,2.351,0,0,0-2.549-2.634c-1.7,0-2.889,1.275-3.4,3.653h5.948ZM40.258,109.336H34.99l3.059-19.288-6.882,19.288H27.513l-.425-19.118L23.86,109.336H18.932L23.1,84.271h7.647L31,99.82l5.1-15.549h8.327l-4.163,25.065Zm13.17-9.092c-.51,0-.765-.084-1.19-.084-2.974,0-4.5,1.1-4.5,3.143a1.792,1.792,0,0,0,1.869,2.039c2.209,0,3.739-2.039,3.824-5.1Zm3.908,9.092H52.917L53,107.211a6.622,6.622,0,0,1-5.608,2.465c-2.889,0-4.843-2.209-4.843-5.523,0-5.012,3.4-7.9,9.346-7.9.6,0,1.36.085,2.209.169a4.283,4.283,0,0,0,.17-1.274c0-1.359-.935-1.869-3.4-1.869a17.526,17.526,0,0,0-4.418.51l-.765.255-.51.085.765-4.588a21.368,21.368,0,0,1,6.373-1.02c4.588,0,7.052,2.039,7.052,5.947a25.7,25.7,0,0,1-.425,4.079l-1.19,7.223-.17,1.273-.085,1.02-.085.766-.083.508Zm80.209-9.092c-.6,0-.85-.084-1.189-.084-3.059,0-4.59,1.1-4.59,3.143a1.854,1.854,0,0,0,1.955,2.039c2.125,0,3.738-2.039,3.824-5.1Zm3.908,9.092h-4.418l.084-2.125a6.618,6.618,0,0,1-5.607,2.465c-2.889,0-4.844-2.209-4.844-5.523,0-5.012,3.4-7.9,9.346-7.9.6,0,1.361.085,2.125.169a5.4,5.4,0,0,0,.256-1.274c0-1.359-.936-1.869-3.4-1.869a18.23,18.23,0,0,0-4.5.51l-.68.255-.51.085.764-4.588a21.372,21.372,0,0,1,6.373-1.02c4.588,0,6.967,2.039,6.967,5.947a18.28,18.28,0,0,1-.424,4.079l-1.1,7.223-.17,1.273-.17,1.02-.084.766v.508h0Zm14.274-20.562h-.51c-1.783,0-2.8.85-4.418,3.313l.51-3.144h-4.844l-3.229,20.392H148.5c1.955-12.49,2.465-14.614,5.014-14.614h.34a21.359,21.359,0,0,1,2.039-5.863l-.17-.084Z" data-name="Path 52160"/></g></svg>