<svg width="12" height="13" viewBox="0 0 12 13" fill="none" xmlns="http://www.w3.org/2000/svg">
<g clip-path="url(#clip0)">
<path d="M6 1V12" stroke="#40BF40" stroke-width="1.5" stroke-linecap="round" stroke-linejoin="round"/>
<path d="M8.5 3H4.75C4.28587 3 3.84075 3.18437 3.51256 3.51256C3.18437 3.84075 3 4.28587 3 4.75C3 5.21413 3.18437 5.65925 3.51256 5.98744C3.84075 6.31563 4.28587 6.5 4.75 6.5H7.25C7.71413 6.5 8.15925 6.68437 8.48744 7.01256C8.81563 7.34075 9 7.78587 9 8.25C9 8.71413 8.81563 9.15925 8.48744 9.48744C8.15925 9.81563 7.71413 10 7.25 10H3" stroke="#40BF40" stroke-width="1.5" stroke-linecap="round" stroke-linejoin="round"/>
</g>
<defs>
<clipPath id="clip0">
<rect width="12" height="12" fill="white" transform="translate(0 0.5)"/>
</clipPath>
</defs>
</svg>
