<svg width="24" height="25" viewBox="0 0 24 25" fill="none" xmlns="http://www.w3.org/2000/svg">
<path d="M11 4.99072H4C3.46957 4.99072 2.96086 5.20144 2.58579 5.57651C2.21071 5.95158 2 6.46029 2 6.99072V20.9907C2 21.5212 2.21071 22.0299 2.58579 22.4049C2.96086 22.78 3.46957 22.9907 4 22.9907H18C18.5304 22.9907 19.0391 22.78 19.4142 22.4049C19.7893 22.0299 20 21.5212 20 20.9907V13.9907" stroke="#4040BF" stroke-width="1.5" stroke-linecap="round" stroke-linejoin="round"/>
<path d="M18.5 3.49071C18.8978 3.09288 19.4374 2.86938 20 2.86938C20.5626 2.86938 21.1022 3.09288 21.5 3.49071C21.8978 3.88853 22.1213 4.4281 22.1213 4.99071C22.1213 5.55331 21.8978 6.09288 21.5 6.49071L12 15.9907L8 16.9907L9 12.9907L18.5 3.49071Z" stroke="#4040BF" stroke-width="1.5" stroke-linecap="round" stroke-linejoin="round"/>
</svg>
