<svg width="20" height="24" viewBox="0 0 20 24" fill="none" xmlns="http://www.w3.org/2000/svg">
<g clip-path="url(#clip0)">
<path d="M16.5368 12.7261C16.5705 16.3512 19.717 17.5576 19.7519 17.573C19.7252 17.658 19.2491 19.292 18.0942 20.9799C17.0958 22.4392 16.0595 23.893 14.4271 23.9231C12.8233 23.9527 12.3075 22.972 10.4738 22.972C8.64054 22.972 8.06751 23.893 6.54919 23.9527C4.97357 24.0123 3.77372 22.3748 2.76709 20.9208C0.709948 17.9469 -0.862091 12.517 1.24877 8.85181C2.29738 7.03162 4.17143 5.87909 6.20541 5.84952C7.75261 5.82004 9.21303 6.89044 10.1589 6.89044C11.1041 6.89044 12.8788 5.6032 14.7445 5.79223C15.5254 5.82476 17.7179 6.10766 19.1256 8.16831C19.0121 8.23863 16.5096 9.69547 16.5368 12.7262V12.7261ZM13.5225 3.82469C14.3591 2.81211 14.9221 1.40259 14.7685 0C13.5627 0.0484571 12.1047 0.803505 11.2398 1.81547C10.4647 2.7117 9.78591 4.14606 9.96907 5.52084C11.3131 5.62484 12.686 4.83787 13.5226 3.82469" fill="black"/>
</g>
<defs>
<clipPath id="clip0">
<rect width="19.5048" height="24" fill="white" transform="translate(0.247559)"/>
</clipPath>
</defs>
</svg>
